# Blender v2.83.1 OBJ File: 'scene.blend'
# www.blender.org
mtllib camera.mtl
o Cube_Cube.001
v -0.395082 0.707107 1.000000
v -0.395082 -0.707107 1.000000
v -0.286160 0.512161 -1.586241
v -0.286160 -0.512161 -1.586241
v 0.395082 0.707107 1.000000
v 0.395082 -0.707107 1.000000
v 0.286160 0.512161 -1.586241
v 0.286160 -0.512161 -1.586241
v -0.395082 0.707107 -0.437199
v -0.395082 -0.707107 -0.437199
v 0.395082 0.707107 -0.437199
v 0.395082 -0.707107 -0.437199
v -0.450709 -0.806666 -0.889399
v -0.450709 -0.806666 -1.531441
v -0.450709 0.806666 -1.531441
v 0.450709 0.806666 -1.531441
v 0.450709 -0.806666 -1.531441
v 0.450709 0.806666 -0.889399
v -0.450709 0.806666 -0.889399
v 0.450709 -0.806666 -0.889399
v 0.170647 0.806666 -1.331965
v -0.170647 0.806666 -1.331965
v 0.170647 0.806666 -1.088875
v -0.170647 0.806666 -1.088875
v 0.170647 1.003075 -1.331965
v -0.170647 1.003075 -1.331965
v 0.170647 1.003075 -1.088875
v -0.170647 1.003075 -1.088875
v -0.110186 0.707107 0.481813
v -0.170647 1.427341 -1.331965
v -0.110186 0.707107 0.080988
v -0.170647 1.427341 -1.088875
v 0.170647 1.003075 -0.534983
v -0.170647 1.003075 -0.534983
v 0.170647 1.427341 -0.534983
v -0.170647 1.427341 -0.534983
v 0.170647 1.003075 -1.832449
v -0.170647 1.003075 -1.832449
v 0.170647 1.427341 -1.832449
v -0.170647 1.427341 -1.832449
v 0.170647 1.550057 -1.331965
v -0.170647 1.550057 -1.331965
v 0.170647 1.550057 -1.088875
v -0.170647 1.550057 -1.088875
v 0.170647 1.550057 -0.534983
v -0.170647 1.550057 -0.534983
v 0.170647 1.550057 -1.832449
v -0.170647 1.550057 -1.832449
v 0.346727 1.003075 -1.088875
v 0.346727 1.003075 -1.331965
v 0.346727 1.427341 -1.088875
v 0.346727 1.427341 -1.331965
v 0.346727 1.427341 -0.534983
v 0.346727 1.003075 -0.534983
v 0.346727 1.003075 -1.832449
v 0.346727 1.427341 -1.832449
v 0.346727 1.550057 -1.088875
v 0.346727 1.550057 -1.331965
v 0.346727 1.550057 -0.534983
v 0.346727 1.550057 -1.832449
v 0.110186 0.707107 0.481813
v 0.110186 0.707107 0.080988
v -0.110186 1.134760 0.080988
v -0.110186 1.134760 0.481813
v 0.110186 1.134760 0.481813
v 0.110186 1.134760 0.080988
v -0.110186 1.352478 0.080988
v -0.110186 1.352478 0.481813
v 0.110186 1.352478 0.481813
v 0.110186 1.352478 0.080988
v -0.059508 1.184827 0.481813
v 0.059508 1.184827 0.481813
v -0.059508 1.302411 0.481813
v 0.059508 1.302411 0.481813
v -0.085337 1.159310 0.663068
v 0.085337 1.159310 0.663068
v -0.085337 1.327928 0.663068
v 0.085337 1.327928 0.663068
v -0.261892 0.984881 0.663068
v 0.261892 0.984881 0.663068
v -0.261892 1.502358 0.663068
v 0.261892 1.502358 0.663068
v -0.261892 0.984881 1.634941
v 0.261892 0.984881 1.634941
v -0.261892 1.502358 1.634941
v 0.261892 1.502358 1.634941
v -0.270044 0.483317 1.000000
v -0.270044 -0.483317 1.000000
v 0.270044 -0.483317 1.000000
v 0.270044 0.483317 1.000000
v -0.219785 0.393365 1.163111
v -0.219785 -0.393365 1.163111
v 0.219785 -0.393365 1.163111
v 0.219785 0.393365 1.163111
v -0.082224 0.147161 1.163111
v -0.082224 -0.147161 1.163111
v 0.082224 -0.147161 1.163111
v 0.082224 0.147161 1.163111
v -0.082224 0.147161 1.283646
v -0.082224 -0.147161 1.283646
v 0.082224 -0.147161 1.283646
v 0.082224 0.147161 1.283646
v -0.339069 0.380854 1.370277
v -0.339069 -0.380854 1.370277
v 0.339069 -0.380854 1.370277
v 0.339069 0.380854 1.370277
v -0.339069 0.380854 2.351406
v -0.339069 -0.380854 2.351406
v 0.339069 -0.380854 2.351406
v 0.339069 0.380854 2.351406
v -0.219334 -0.392557 -1.586241
v -0.219334 0.392557 -1.586241
v 0.219334 0.392557 -1.586241
v 0.219334 -0.392557 -1.586241
v -0.219334 -0.392557 -1.526257
v -0.219334 0.392557 -1.526257
v 0.219334 0.392557 -1.526257
v 0.219334 -0.392557 -1.526257
v 0.395082 -0.487035 -0.213550
v 0.395082 -0.487035 0.776351
v 0.395082 0.487035 0.776351
v 0.395082 0.487035 -0.213550
v 0.228677 -0.487035 -0.213550
v 0.228677 -0.487035 0.776351
v 0.228677 0.487035 0.776351
v 0.228677 0.487035 -0.213550
v 0.228677 0.134337 0.396168
v 0.228677 0.134337 0.643097
v 0.228677 0.377318 0.643097
v 0.228677 0.377318 0.396168
v 0.331476 0.134337 0.396168
v 0.331476 0.134337 0.643097
v 0.331476 0.377318 0.643097
v 0.331476 0.377318 0.396168
vt 0.625000 0.500000
vt 0.625000 0.500000
vt 0.625000 0.250000
vt 0.625000 0.250000
vt 0.375000 0.500000
vt 0.375000 0.500000
vt 0.375000 0.250000
vt 0.375000 0.250000
vt 0.625000 0.750000
vt 0.625000 0.750000
vt 0.375000 0.750000
vt 0.375000 0.750000
vt 0.625000 0.750000
vt 0.875000 0.750000
vt 0.875000 0.750000
vt 0.375000 0.000000
vt 0.375000 0.000000
vt 0.375000 0.179650
vt 0.375000 0.179650
vt 0.625000 0.570350
vt 0.875000 0.570350
vt 0.875000 0.570350
vt 0.625000 0.570350
vt 0.375000 0.570350
vt 0.375000 0.570350
vt 0.375000 0.250000
vt 0.375000 0.500000
vt 0.625000 0.179650
vt 0.625000 0.000000
vt 0.375000 0.179650
vt 0.625000 0.179650
vt 0.875000 0.500000
vt 0.375000 0.179650
vt 0.375000 0.250000
vt 0.125000 0.570350
vt 0.125000 0.570350
vt 0.375000 0.500000
vt 0.375000 0.500000
vt 0.375000 0.570350
vt 0.375000 0.570350
vt 0.125000 0.570350
vt 0.375000 0.179650
vt 0.375000 0.179650
vt 0.375000 0.250000
vt 0.375000 0.250000
vt 0.125000 0.570350
vt 0.375000 0.570350
vt 0.375000 0.570350
vt 0.375000 0.570350
vt 0.375000 0.250000
vt 0.375000 0.500000
vt 0.375000 0.570350
vt 0.375000 0.570350
vt 0.375000 0.570350
vt 0.375000 0.570350
vt 0.375000 0.500000
vt 0.375000 0.500000
vt 0.375000 0.500000
vt 0.375000 0.500000
vt 0.125000 0.570350
vt 0.125000 0.570350
vt 0.375000 0.179650
vt 0.375000 0.179650
vt 0.375000 0.250000
vt 0.375000 0.250000
vt 0.375000 0.250000
vt 0.375000 0.500000
vt 0.375000 0.570350
vt 0.375000 0.570350
vt 0.375000 0.179650
vt 0.375000 0.179650
vt 0.125000 0.500000
vt 0.125000 0.570350
vt 0.125000 0.570350
vt 0.125000 0.500000
vt 0.375000 0.500000
vt 0.375000 0.500000
vt 0.375000 0.570350
vt 0.375000 0.500000
vt 0.375000 0.500000
vt 0.375000 0.570350
vt 0.375000 0.570350
vt 0.375000 0.750000
vt 0.375000 0.750000
vt 0.375000 1.000000
vt 0.375000 1.000000
vt 0.125000 0.570350
vt 0.125000 0.570350
vt 0.125000 0.570350
vt 0.375000 0.570350
vt 0.375000 0.000000
vt 0.375000 0.179650
vt 0.375000 1.000000
vt 0.125000 0.750000
vt 0.375000 0.750000
vt 0.375000 0.000000
vt 0.375000 0.000000
vt 0.375000 0.000000
vt 0.375000 0.179650
vt 0.375000 0.750000
vt 0.375000 0.750000
vt 0.375000 1.000000
vt 0.375000 1.000000
vt 0.375000 0.750000
vt 0.125000 0.750000
vt 0.375000 0.750000
vt 0.375000 0.750000
vt 0.375000 0.750000
vt 0.125000 0.750000
vt 0.375000 0.000000
vt 0.375000 0.000000
vt 0.375000 0.000000
vt 0.375000 0.000000
vt 0.375000 0.000000
vt 0.375000 0.000000
vt 0.125000 0.750000
vt 0.375000 1.000000
vt 0.375000 0.750000
vt 0.375000 0.750000
vt 0.375000 1.000000
vt 0.375000 1.000000
vt 0.125000 0.750000
vt 0.375000 0.750000
vt 0.375000 0.750000
vt 0.625000 0.750000
vt 0.625000 0.000000
vt 0.375000 0.000000
vt 0.375000 1.000000
vt 0.375000 1.000000
vt 0.375000 1.000000
vt 0.375000 0.750000
vt 0.625000 0.000000
vt 0.375000 0.000000
vt 0.875000 0.750000
vt 0.625000 0.750000
vt 0.625000 0.750000
vt 0.875000 0.750000
vt 0.875000 0.750000
vt 0.625000 0.000000
vt 0.375000 0.000000
vt 0.375000 1.000000
vt 0.375000 1.000000
vt 0.375000 0.750000
vt 0.375000 0.750000
vt 0.625000 0.000000
vt 0.375000 0.000000
vt 0.375000 1.000000
vt 0.375000 0.750000
vt 0.625000 0.000000
vt 0.375000 0.000000
vt 0.625000 0.750000
vt 0.875000 0.750000
vt 0.625000 1.000000
vt 0.625000 0.750000
vt 0.625000 0.000000
vt 0.375000 0.000000
vt 0.875000 0.750000
vt 0.625000 0.250000
vt 0.625000 0.250000
vt 0.625000 0.500000
vt 0.625000 0.500000
vt 0.375000 0.250000
vt 0.375000 0.500000
vt 0.375000 0.570350
vt 0.375000 0.570350
vt 0.625000 0.570350
vt 0.625000 0.570350
vt 0.375000 0.750000
vt 0.375000 0.750000
vt 0.375000 0.570350
vt 0.625000 0.750000
vt 0.375000 0.570350
vt 0.625000 0.570350
vt 0.625000 0.570350
vt 0.625000 0.750000
vt 0.375000 0.750000
vt 0.625000 0.750000
vn 0.0000 -0.1829 -0.9831
vn 0.0000 0.0000 -1.0000
vn 1.0000 0.0000 0.0000
vn 0.0000 0.0000 1.0000
vn 0.0000 1.0000 0.0000
vn 0.0000 -1.0000 0.0000
vn 0.0000 -0.9766 0.2150
vn 0.9925 0.0000 0.1221
vn 0.0000 0.1829 -0.9831
vn -1.0000 0.0000 0.0000
vn -0.3160 0.0000 -0.9488
vn -0.9925 0.0000 0.1221
vn 0.0000 0.9766 0.2150
vn 0.3160 0.0000 -0.9488
vn 0.0000 -0.9902 -0.1394
vn 0.9900 0.0000 -0.1411
vn 0.0000 0.9902 -0.1394
vn -0.9900 0.0000 -0.1411
vn 0.9557 0.0000 0.2945
vn 0.0000 0.8757 0.4829
vn -0.9557 0.0000 0.2945
vn 0.0000 -0.8757 0.4829
vn 0.0000 0.3476 -0.9376
vn -0.3196 0.0000 -0.9476
vn 0.0000 -0.3476 -0.9376
vn 0.3196 0.0000 -0.9476
usemtl None
s off
f 8/1/1 17/2/1 14/3/1 4/4/1
f 7/5/2 113/6/2 112/7/2 3/8/2
f 6/9/3 120/10/3 121/11/3 5/12/3
f 6/9/4 89/13/4 88/14/4 2/15/4
f 1/16/5 29/17/5 31/18/5 9/19/5
f 12/20/6 6/9/6 2/15/6 10/21/6
f 10/21/7 13/22/7 20/23/7 12/20/7
f 12/20/8 20/23/8 18/24/8 11/25/8
f 3/8/9 15/26/9 16/27/9 7/5/9
f 1/16/10 9/19/10 10/28/10 2/29/10
f 19/30/10 15/26/10 14/3/10 13/31/10
f 17/2/6 20/23/6 13/22/6 14/32/6
f 19/30/5 24/33/5 22/34/5 15/26/5
f 16/27/3 18/24/3 20/23/3 17/2/3
f 4/4/11 14/3/11 15/26/11 3/8/11
f 9/19/12 19/30/12 13/31/12 10/28/12
f 11/25/13 18/24/13 19/35/13 9/36/13
f 7/5/14 16/27/14 17/2/14 8/1/14
f 21/37/3 25/38/3 27/39/3 23/40/3
f 15/26/5 22/34/5 21/37/5 16/27/5
f 18/24/5 23/40/5 24/41/5 19/35/5
f 16/27/5 21/37/5 23/40/5 18/24/5
f 28/42/10 32/43/10 30/44/10 26/45/10
f 24/33/10 28/42/10 26/45/10 22/34/10
f 22/34/2 26/45/2 25/38/2 21/37/2
f 23/40/4 27/39/4 28/46/4 24/41/4
f 27/39/6 49/47/6 54/48/6 33/49/6
f 26/45/6 38/50/6 37/51/6 25/38/6
f 35/52/4 53/53/4 59/54/4 45/55/4
f 41/56/5 58/57/5 60/58/5 47/59/5
f 33/49/4 35/52/4 36/60/4 34/61/4
f 28/42/10 34/62/10 36/63/10 32/43/10
f 30/44/10 42/64/10 48/65/10 40/66/10
f 27/39/6 33/49/6 34/61/6 28/46/6
f 38/50/2 40/66/2 39/67/2 37/51/2
f 43/68/5 57/69/5 58/57/5 41/56/5
f 30/44/10 40/66/10 38/50/10 26/45/10
f 36/63/10 46/70/10 44/71/10 32/43/10
f 42/72/5 44/73/5 43/68/5 41/56/5
f 44/73/5 46/74/5 45/55/5 43/68/5
f 41/56/5 47/59/5 48/75/5 42/72/5
f 40/66/2 48/65/2 47/59/2 39/67/2
f 32/43/10 44/71/10 42/64/10 30/44/10
f 33/49/4 54/48/4 53/53/4 35/52/4
f 47/59/2 60/58/2 56/76/2 39/67/2
f 35/52/4 45/55/4 46/74/4 36/60/4
f 52/77/3 58/57/3 57/69/3 51/78/3
f 51/78/3 53/53/3 54/48/3 49/47/3
f 50/79/3 52/77/3 51/78/3 49/47/3
f 50/79/3 55/80/3 56/76/3 52/77/3
f 51/78/3 57/69/3 59/54/3 53/53/3
f 56/76/3 60/58/3 58/57/3 52/77/3
f 45/55/5 59/54/5 57/69/5 43/68/5
f 39/67/2 56/76/2 55/80/2 37/51/2
f 37/51/6 55/80/6 50/79/6 25/38/6
f 25/38/6 50/79/6 49/47/6 27/39/6
f 62/81/3 66/82/3 65/83/3 61/84/3
f 11/25/5 62/81/5 61/84/5 5/12/5
f 5/12/5 61/84/5 29/85/5 1/86/5
f 9/36/5 31/87/5 62/81/5 11/25/5
f 63/88/2 67/89/2 70/90/2 66/82/2
f 29/17/10 64/91/10 63/92/10 31/18/10
f 31/87/2 63/88/2 66/82/2 62/81/2
f 61/84/4 65/83/4 64/93/4 29/85/4
f 67/89/5 68/94/5 69/95/5 70/90/5
f 64/91/4 71/96/4 73/97/4 68/98/4
f 66/82/3 70/90/3 69/95/3 65/83/3
f 64/91/10 68/98/10 67/99/10 63/92/10
f 72/100/15 76/101/15 75/102/15 71/103/15
f 65/83/4 72/100/4 71/103/4 64/93/4
f 69/95/4 74/104/4 72/100/4 65/83/4
f 68/94/4 73/105/4 74/104/4 69/95/4
f 78/106/2 82/107/2 80/108/2 76/101/2
f 74/104/16 78/106/16 76/101/16 72/100/16
f 73/105/17 77/109/17 78/106/17 74/104/17
f 71/96/18 75/110/18 77/111/18 73/97/18
f 79/112/10 83/113/10 85/114/10 81/115/10
f 77/109/2 81/116/2 82/107/2 78/106/2
f 75/110/2 79/112/2 81/115/2 77/111/2
f 76/101/2 80/108/2 79/117/2 75/102/2
f 84/118/4 86/119/4 85/120/4 83/121/4
f 80/108/6 84/118/6 83/121/6 79/117/6
f 82/107/3 86/119/3 84/118/3 80/108/3
f 81/116/5 85/122/5 86/119/5 82/107/5
f 90/123/19 94/124/19 93/125/19 89/13/19
f 5/12/4 90/123/4 89/13/4 6/9/4
f 2/29/4 88/126/4 87/127/4 1/16/4
f 1/86/4 87/128/4 90/123/4 5/12/4
f 91/129/4 95/130/4 98/131/4 94/124/4
f 87/128/20 91/129/20 94/124/20 90/123/20
f 88/126/21 92/132/21 91/133/21 87/127/21
f 89/13/22 93/125/22 92/134/22 88/14/22
f 97/135/6 101/136/6 100/137/6 96/138/6
f 92/132/4 96/139/4 95/140/4 91/133/4
f 93/125/4 97/135/4 96/138/4 92/134/4
f 94/124/4 98/131/4 97/135/4 93/125/4
f 99/141/23 103/142/23 106/143/23 102/144/23
f 98/131/3 102/144/3 101/136/3 97/135/3
f 95/130/5 99/141/5 102/144/5 98/131/5
f 96/139/10 100/145/10 99/146/10 95/140/10
f 103/142/5 107/147/5 110/148/5 106/143/5
f 100/145/24 104/149/24 103/150/24 99/146/24
f 101/136/25 105/151/25 104/152/25 100/137/25
f 102/144/26 106/143/26 105/151/26 101/136/26
f 110/148/4 107/147/4 108/153/4 109/154/4
f 104/149/10 108/155/10 107/156/10 103/150/10
f 105/151/6 109/154/6 108/157/6 104/152/6
f 106/143/3 110/148/3 109/154/3 105/151/3
f 111/158/5 115/159/5 118/160/5 114/161/5
f 4/4/2 111/158/2 114/161/2 8/1/2
f 3/8/2 112/7/2 111/158/2 4/4/2
f 8/1/2 114/161/2 113/6/2 7/5/2
f 116/162/2 117/163/2 118/160/2 115/159/2
f 112/7/3 116/162/3 115/159/3 111/158/3
f 114/161/10 118/160/10 117/163/10 113/6/10
f 113/6/6 117/163/6 116/162/6 112/7/6
f 122/164/4 126/165/4 123/166/4 119/167/4
f 11/25/3 122/164/3 119/167/3 12/20/3
f 5/12/3 121/11/3 122/164/3 11/25/3
f 12/20/3 119/167/3 120/10/3 6/9/3
f 125/168/3 129/169/3 130/170/3 126/165/3
f 120/10/2 124/171/2 125/168/2 121/11/2
f 121/11/6 125/168/6 126/165/6 122/164/6
f 119/167/5 123/166/5 124/171/5 120/10/5
f 130/170/2 134/172/2 131/173/2 127/174/2
f 123/166/3 127/174/3 128/175/3 124/171/3
f 126/165/3 130/170/3 127/174/3 123/166/3
f 124/171/3 128/175/3 129/169/3 125/168/3
f 134/172/3 133/176/3 132/177/3 131/173/3
f 128/175/4 132/177/4 133/176/4 129/169/4
f 129/169/5 133/176/5 134/172/5 130/170/5
f 127/174/6 131/173/6 132/177/6 128/175/6
