# Blender v3.4.1 OBJ File: ''
# www.blender.org
mtllib island_green.mtl
o green_Mesh.009
v 2.923953 -0.047519 -1.324694
v 1.756474 -0.068625 1.057694
v -2.071853 -0.068877 -0.532676
v -3.217537 0.060399 -0.162234
v -3.124930 0.060399 0.392239
v -1.495372 0.060399 -0.224473
v 0.442039 0.004097 1.212241
v 0.065939 -0.071861 0.984230
v 0.779148 -0.071861 1.416613
v 1.692727 0.178482 0.413216
v 3.018371 0.065036 0.371458
v 1.388542 -0.021517 -0.245396
v 1.338443 0.243704 -0.159924
v 0.878074 0.096624 0.644988
v 1.039298 -0.044006 1.321074
v 2.313517 0.852939 -0.408358
v 2.087312 0.359490 0.246961
v 1.547985 0.061990 -0.505594
v 1.620554 0.070514 -0.711492
v 2.023343 0.482335 -0.624725
v 2.141590 0.390774 -0.810074
v 2.149967 0.359133 -0.695779
v -2.637324 0.012878 0.605877
v -2.744838 0.060399 -0.338011
v 1.964777 0.780398 -0.219608
v 2.409251 0.661074 -0.147456
v 2.915071 0.081953 -0.493443
v -0.424203 -0.060766 0.874092
v -0.159460 -0.038484 0.845004
v 1.851611 0.425348 0.272281
v 2.029777 0.341954 -0.806520
v 2.595069 0.089266 -1.079934
v -0.252281 0.002590 1.019823
v -0.622450 0.011218 0.723298
v -0.414162 -0.072289 0.670144
v 1.997341 -0.068982 -1.212290
v -0.267995 -0.076361 1.160917
v -0.723053 -0.076861 0.783919
v -1.232283 0.057899 0.046835
v -2.363256 0.296691 -0.045443
v -2.249471 0.192981 0.508737
v -1.974727 0.147687 -0.043059
v -1.993389 -0.071861 0.686228
v 1.662150 0.413622 0.171298
v 1.649341 0.152305 -0.873744
v 2.288146 0.292574 -0.668494
v 1.927973 0.313293 0.590620
v 2.679246 0.264441 0.234716
v 2.244402 0.335307 -0.041797
v 2.122476 0.898739 -0.438519
v 2.342161 0.598230 -0.543425
v 1.240780 -0.039247 0.815401
v 1.584793 0.322749 -0.484915
v 2.341963 0.321060 -0.879870
v 2.955760 -0.019478 -0.114984
v 2.928539 0.069259 -0.366883
v 1.361024 -0.036711 0.638257
v 2.228609 0.647104 -0.687970
v 1.962702 0.533442 0.217819
v 2.164144 0.322622 0.447434
v 1.676654 0.208060 -0.568366
v 2.272011 0.362325 -0.924571
v 0.510462 -0.062343 0.625292
v 3.303225 -0.065261 -0.401153
v 2.753999 -0.069864 0.909859
v -2.457197 0.262538 0.139533
v -2.667385 0.215575 0.219079
v -1.985377 0.109084 0.373153
v 2.175215 0.312840 0.085382
v 2.269015 0.841778 -0.570180
v 1.503990 0.273711 -0.338528
v 2.451003 0.266074 -0.975036
v 2.413399 0.237700 -1.147911
v -2.541800 0.236712 0.306122
v -3.055158 0.192981 -0.049688
v -2.704453 0.276711 -0.047536
v 1.108899 0.039795 0.370839
v 1.524386 0.129466 -0.885359
v 2.708823 -0.071861 -0.830956
v 2.556509 0.292574 -0.615501
v 2.593407 0.231516 -0.188868
v 2.342188 0.801774 -0.370556
v 2.399781 0.424331 -0.478761
v 1.917658 0.313081 0.386641
v 1.921504 0.360034 -0.733497
v 2.295255 0.269346 -1.058580
v 1.058885 -0.014335 0.126809
v 2.438780 0.182872 0.467368
v 2.451964 0.130620 -1.311914
v 1.636275 0.413622 -0.033416
v 1.670706 0.243512 -0.766941
v 2.066674 0.501646 -0.697378
v 2.453423 0.227143 -0.426013
v 2.037128 0.782892 -0.617534
v 1.736092 0.547312 -0.258904
v 1.682156 0.345145 -0.656462
vn 0.0307 0.9853 0.1683
vn -0.2731 0.7578 -0.5925
vn -0.7185 0.6896 0.0908
vn -0.3427 0.7430 -0.5749
vn -0.0389 0.9992 0.0009
vn 0.5847 0.7911 -0.1800
vn -0.6438 0.6910 0.3286
vn 0.1640 0.9785 0.1253
vn 0.7987 0.1015 -0.5931
vn 0.0929 -0.0391 -0.9949
vn -0.6657 0.6977 -0.2645
vn 0.4976 0.8668 0.0340
vn 0.5212 0.8210 0.2329
vn -0.9498 0.3017 0.0823
vn -0.2363 0.8523 0.4666
vn 0.3643 0.9306 -0.0346
vn 0.2142 0.9701 -0.1142
vn 0.3779 0.6439 0.6653
vn -0.3190 0.8018 0.5054
vn -0.3184 0.8742 0.3667
vn -0.3147 0.6605 0.6817
vn -0.7376 0.0768 -0.6708
vn -0.9827 0.0493 -0.1784
vn 0.1131 0.8953 0.4308
vn 0.0442 0.9987 0.0270
vn -0.0623 0.3363 0.9397
vn -0.4072 0.8842 -0.2289
vn 0.8022 0.1783 -0.5699
vn -0.5712 0.7417 0.3514
vn 0.9250 0.2460 -0.2898
vn -0.8187 0.5739 -0.0222
vn -0.6583 0.7258 -0.1997
vn 0.2558 0.1387 -0.9567
vn -0.5199 0.7449 0.4181
vn -0.7773 0.5773 -0.2501
vn -0.0101 0.9854 -0.1699
vn -0.4294 0.5080 0.7467
vn -0.1714 0.2524 -0.9523
vn -0.0180 0.8031 -0.5956
vn -0.2262 0.9422 0.2472
vn -0.2261 0.9423 0.2470
vn -0.2263 0.9422 0.2472
vn 0.3193 0.8395 0.4397
vn -0.6249 0.7761 -0.0849
vn 0.3420 0.9379 0.0577
vn -0.2136 0.6869 0.6947
vn -0.2655 0.9521 0.1518
vn -0.2509 0.7620 -0.5969
vn -0.8631 0.1899 -0.4679
vn 0.4541 0.8909 -0.0102
vn -0.0903 0.9728 0.2135
vn -0.1875 0.8001 -0.5698
vn -0.0583 0.9713 0.2308
vn 0.3065 0.6951 0.6504
vn 0.2676 0.8312 0.4873
vn 0.3061 0.9520 0.0071
vn -0.4249 0.6571 -0.6227
vn 0.6038 0.7551 0.2555
vn 0.7861 0.6168 0.0400
vn 0.3476 0.8550 0.3849
vn 0.3879 0.8952 0.2194
vn 0.2757 0.7607 0.5876
vn -0.3858 0.9106 -0.1481
vn 0.0380 0.9985 0.0401
vn 0.1159 0.8364 0.5357
vn -0.0057 0.9455 0.3256
vn 0.9568 0.2051 -0.2062
vn 0.5407 0.7918 0.2840
vn -0.0880 0.7900 -0.6068
vn -0.5806 0.8109 0.0734
vn 0.1204 0.9751 -0.1862
vn 0.7916 0.3851 -0.4744
vn 0.4089 0.0877 0.9084
vn -0.2248 0.6936 -0.6844
vn 0.2351 0.9642 -0.1226
vn 0.2459 0.6614 0.7086
vn 0.9421 0.2171 -0.2557
vn 0.1495 0.8560 0.4949
vn -0.3014 0.9399 0.1606
vn 0.0458 0.5102 -0.8589
vn 0.9657 0.2026 -0.1625
vn -0.2444 0.7501 -0.6145
vn 0.0838 0.9713 0.2228
vn -0.6990 0.7045 -0.1227
vn 0.2511 0.9585 -0.1352
vn -0.9629 0.2676 -0.0359
vn -0.2007 0.8886 0.4123
vn 0.3470 0.8957 0.2780
vn -0.3777 0.8849 0.2727
vn 0.3195 0.9447 0.0732
vn 0.1626 0.0840 -0.9831
vn 0.6881 0.6566 0.3088
vn -0.0423 0.7869 -0.6157
vn -0.1113 0.9527 -0.2829
vn -0.2359 0.7192 0.6535
vn 0.1819 0.3447 -0.9209
vn 0.1107 0.8256 -0.5533
vn -0.2264 0.9421 0.2475
vn -0.1158 0.8582 -0.5001
vn 0.1082 0.9896 0.0946
vn -0.1642 0.8148 0.5561
vn 0.9111 0.3097 -0.2719
vn -0.1226 0.9845 -0.1257
vn -0.2449 0.8127 0.5288
vn 0.3003 0.8295 -0.4710
vn 0.6674 0.6979 -0.2597
vn 0.1903 0.9286 -0.3185
vn 0.5573 0.8030 -0.2112
vn -0.2207 0.7740 -0.5934
vn -0.1861 0.9787 0.0862
vn 0.2647 0.9596 0.0958
vn 0.4704 0.8783 0.0850
vn -0.1996 0.9786 0.0503
vn 0.3358 0.8810 0.3332
vn 0.4719 0.7580 0.4502
usemtl None
s 1
f 66//1 74//1 41//1
f 31//2 91//2 85//2
f 44//3 25//3 95//3
f 31//4 21//4 62//4
f 47//5 60//5 84//5
f 81//6 48//6 55//6
f 10//7 2//7 47//7
f 57//8 77//8 52//8
f 51//9 46//9 58//9
f 58//10 46//10 92//10
f 95//11 25//11 96//11
f 27//12 80//12 56//12
f 56//13 81//13 55//13
f 61//14 91//14 19//14
f 10//15 77//15 57//15
f 28//16 35//16 34//16
f 33//17 8//17 29//17
f 90//3 44//3 95//3
f 47//18 2//18 60//18
f 25//19 44//19 30//19
f 57//20 2//20 10//20
f 44//21 10//21 84//21
f 71//22 12//22 13//22
f 25//23 94//23 20//23
f 48//24 88//24 65//24
f 15//25 2//25 52//25
f 26//26 25//26 49//26
f 71//27 13//27 90//27
f 70//28 51//28 58//28
f 28//29 37//29 33//29
f 82//30 51//30 70//30
f 90//31 95//31 53//31
f 20//32 92//32 85//32
f 92//33 46//33 22//33
f 59//34 25//34 30//34
f 18//35 61//35 19//35
f 11//36 64//36 55//36
f 30//37 44//37 84//37
f 94//38 58//38 92//38
f 76//39 3//39 24//39
f 75//40 5//41 67//42
f 6//43 40//43 42//43
f 71//44 90//44 53//44
f 56//45 64//45 27//45
f 10//46 44//46 77//46
f 5//47 74//47 67//47
f 96//48 25//48 20//48
f 12//49 71//49 18//49
f 60//50 88//50 17//50
f 60//51 17//51 84//51
f 24//52 75//52 76//52
f 67//53 40//53 76//53
f 2//54 88//54 60//54
f 43//55 39//55 68//55
f 68//56 66//56 41//56
f 89//57 36//57 86//57
f 54//58 46//58 72//58
f 72//59 79//59 32//59
f 48//60 65//60 11//60
f 21//61 22//61 54//61
f 84//62 17//62 30//62
f 14//63 63//63 7//63
f 52//64 2//64 57//64
f 50//65 25//65 16//65
f 69//66 88//66 48//66
f 83//67 82//67 93//67
f 32//68 1//68 73//68
f 45//69 36//69 78//69
f 87//70 44//70 90//70
f 86//71 72//71 73//71
f 93//72 26//72 81//72
f 81//73 26//73 49//73
f 36//74 45//74 31//74
f 81//75 49//75 48//75
f 25//76 82//76 16//76
f 51//77 82//77 83//77
f 82//78 25//78 26//78
f 81//79 80//79 93//79
f 70//80 58//80 94//80
f 82//81 26//81 93//81
f 85//82 96//82 20//82
f 14//83 7//83 9//83
f 25//84 50//84 94//84
f 16//85 70//85 50//85
f 91//86 45//86 19//86
f 78//87 19//87 45//87
f 55//88 64//88 56//88
f 22//89 21//89 31//89
f 77//90 14//90 52//90
f 92//91 22//91 85//91
f 46//92 79//92 72//92
f 76//93 40//93 3//93
f 33//94 29//94 28//94
f 34//95 38//95 28//95
f 62//61 21//61 54//61
f 80//96 46//96 51//96
f 6//97 3//97 40//97
f 76//98 75//40 67//42
f 70//99 94//99 50//99
f 68//100 39//100 42//100
f 5//101 23//101 74//101
f 16//102 82//102 70//102
f 7//103 63//103 8//103
f 22//61 46//61 54//61
f 74//104 23//104 41//104
f 1//105 89//105 73//105
f 72//106 32//106 73//106
f 54//107 72//107 86//107
f 55//108 48//108 11//108
f 24//109 4//109 75//109
f 67//110 66//110 40//110
f 45//2 91//2 31//2
f 68//111 42//111 66//111
f 80//112 81//112 56//112
f 74//113 66//113 67//113
f 42//114 40//114 66//114
f 68//115 41//115 43//115
