# Blender v3.4.1 OBJ File: ''
# www.blender.org
mtllib island_mountain.mtl
o rocks.001_Mesh.008
v 1.692727 0.178482 0.413216
v 1.338443 0.243704 -0.159924
v 2.087312 0.359490 0.246961
v 1.547985 0.061990 -0.505594
v 2.023343 0.482335 -0.624725
v 2.149967 0.359133 -0.695779
v 1.964777 0.780398 -0.219608
v 2.915071 0.081953 -0.493443
v 1.851611 0.425348 0.272281
v 2.029777 0.341954 -0.806520
v 1.997341 -0.068982 -1.212290
v 2.288146 0.292574 -0.668494
v 1.927973 0.313293 0.590620
v 2.679246 0.264441 0.234716
v 2.244402 0.335307 -0.041797
v 2.342161 0.598230 -0.543425
v 1.584793 0.322749 -0.484915
v 2.341963 0.321060 -0.879870
v 1.962702 0.533442 0.217819
v 1.676654 0.208060 -0.568366
v 2.272011 0.362325 -0.924571
v 2.175215 0.312840 0.085382
v 1.503990 0.273711 -0.338528
v 2.413399 0.237700 -1.147911
v 2.708823 -0.071861 -0.830956
v 2.556509 0.292574 -0.615501
v 2.399781 0.424331 -0.478761
v 1.917658 0.313081 0.386641
v 1.921504 0.360034 -0.733497
v 2.295255 0.269346 -1.058580
v 1.058885 -0.014335 0.126809
v 2.438780 0.182872 0.467368
v 2.451964 0.130620 -1.311914
v 1.636275 0.413622 -0.033416
v 1.670706 0.243512 -0.766941
v 2.066674 0.501646 -0.697378
v 2.453423 0.227143 -0.426013
v 2.037128 0.782892 -0.617534
v 1.736092 0.547312 -0.258904
v 1.682156 0.345145 -0.656462
vn -0.3427 0.7430 -0.5749
vn 0.6559 0.5967 0.4623
vn -0.8159 -0.2891 -0.5008
vn 0.1616 0.5514 -0.8184
vn 0.7710 0.5530 0.3159
vn -0.5112 0.8591 0.0250
vn -0.6468 0.7117 -0.2742
vn -0.2514 0.7252 -0.6410
vn 0.7677 0.5913 0.2469
vn -0.2178 0.7930 -0.5690
vn -0.6993 0.3476 -0.6246
vn 0.4541 0.8909 -0.0102
vn -0.8063 -0.2589 -0.5318
vn 0.1814 0.2875 0.9405
vn 0.7711 0.4301 0.4695
vn -0.8637 0.0516 -0.5014
vn 0.0369 0.9805 0.1933
vn 0.7657 0.3523 0.5382
vn 0.5471 0.5835 -0.6002
vn -0.5477 0.8130 0.1976
vn 0.0353 0.9810 -0.1905
vn 0.6346 0.6822 -0.3633
vn -0.9969 0.0669 0.0418
vn -0.4186 0.6546 -0.6295
usemtl None
s 1
f 10//1 21//1 30//1
f 7//2 22//2 15//2
f 20//3 17//3 40//3
f 12//4 26//4 25//4
f 22//5 7//5 19//5
f 28//6 1//6 13//6
f 17//7 39//7 40//7
f 29//8 35//8 40//8
f 3//9 22//9 19//9
f 24//10 33//10 30//10
f 23//11 20//11 4//11
f 32//12 22//12 3//12
f 23//13 17//13 20//13
f 3//14 19//14 9//14
f 27//15 26//15 16//15
f 38//16 36//16 5//16
f 22//17 14//17 15//17
f 37//18 26//18 27//18
f 8//19 25//19 26//19
f 2//20 31//20 34//20
f 29//21 6//21 10//21
f 21//22 18//22 30//22
f 20//23 40//23 35//23
f 11//24 10//24 30//24
